<svg xmlns="http://www.w3.org/2000/svg" width="1024" height="1024" viewBox="0 0 1024 1024" version="1.1">
	<path d="M 418.500 129.118 C 287.907 140.122, 176.649 231.408, 140.420 357.279 C 111.902 456.356, 133.470 563.081, 198.467 644.518 C 214.942 665.160, 248.419 696.237, 255.638 697.592 C 262.802 698.936, 270.640 693.270, 273.135 684.945 C 274.248 681.228, 274.057 679.841, 271.032 669.678 C 264.246 646.887, 260.464 628.778, 257.838 606.500 C 255.920 590.226, 256.230 550.590, 258.400 534.500 C 266.107 477.382, 286.560 426.775, 319.700 382.831 C 363.909 324.207, 426.495 282.762, 496.966 265.443 C 510.340 262.157, 510.532 262.293, 487.697 258.859 C 474.868 256.930, 468.370 256.568, 446 256.537 C 429.855 256.515, 415.397 257.014, 409 257.815 C 392.837 259.840, 369.580 264.626, 354.549 269.022 C 347.066 271.210, 339.044 272.993, 336.722 272.984 C 324.894 272.937, 317.283 260.621, 323.137 251 C 329.558 240.449, 357.533 211.887, 375.784 197.248 C 411.053 168.959, 454.434 147.712, 498.794 136.999 C 503.906 135.764, 507.931 134.597, 507.739 134.405 C 506.898 133.564, 481.359 129.962, 469.605 129.026 C 454.837 127.851, 433.071 127.890, 418.500 129.118 M 756.914 320.980 C 749.717 323.093, 745 329.569, 745 337.337 C 745 339.766, 746.304 345.989, 747.897 351.165 C 768.133 416.904, 766.564 488.820, 743.506 552.429 C 707.711 651.178, 626.277 725.589, 525.246 751.867 C 516.343 754.183, 511.331 755.913, 512.371 756.312 C 513.307 756.671, 520.469 757.974, 528.287 759.208 C 540.791 761.180, 546.227 761.448, 573.500 761.434 C 600.165 761.421, 606.390 761.122, 618.013 759.292 C 635.153 756.594, 652.396 752.739, 666.739 748.400 C 679.802 744.448, 682.840 744.260, 688.601 747.049 C 695.282 750.283, 698.667 757.002, 696.878 763.479 C 695.686 767.798, 687.126 778.557, 673.675 792.645 C 631.137 837.199, 575.038 868.759, 513.500 882.755 L 509.500 883.665 515 884.850 C 535.215 889.207, 577.117 891.277, 600.527 889.076 C 678.354 881.758, 746.367 849.467, 800.072 794.334 C 834.616 758.872, 858.528 719.631, 874.008 673 C 884.521 641.335, 888.829 616.349, 889.701 582 C 890.954 532.624, 883.386 492.808, 864.045 447.025 C 846.313 405.049, 815.985 363.744, 780.509 333.255 C 766.584 321.287, 762.719 319.276, 756.914 320.980 M 201.401 385.905 C 189.347 391.380, 189.092 407.757, 200.966 413.750 C 203.418 414.988, 206.583 416, 208 416 C 209.417 416, 212.584 414.988, 215.038 413.750 C 219.841 411.328, 224 404.947, 224 400 C 224 395.053, 219.841 388.672, 215.038 386.250 C 209.645 383.531, 206.789 383.458, 201.401 385.905 M 201.401 433.905 C 190.520 438.847, 188.895 453.242, 198.400 460.492 C 206.210 466.448, 217.303 463.857, 221.750 455.038 C 222.988 452.584, 224 449.417, 224 448 C 224 443.053, 219.841 436.672, 215.038 434.250 C 209.645 431.531, 206.789 431.458, 201.401 433.905 M 201.382 481.476 C 191.987 485.761, 189.129 498.246, 195.743 506.107 C 204.569 516.595, 221.023 511.932, 223.616 498.207 C 224.505 493.505, 221.582 486.545, 217.369 483.332 C 213.239 480.182, 206.048 479.347, 201.382 481.476 M 800.830 506.027 C 793.200 510.058, 790.295 518.357, 793.768 526.208 C 798.617 537.171, 812.627 539.174, 820.341 530.007 C 831.284 517.002, 815.885 498.074, 800.830 506.027 M 801 554.185 C 797.729 555.868, 795.886 557.718, 794.250 560.962 C 791.516 566.383, 791.457 569.208, 793.964 574.729 C 797.355 582.200, 805.713 585.527, 813.560 582.530 C 822.409 579.151, 826.315 569.459, 822.133 561.260 C 817.848 552.862, 809.201 549.967, 801 554.185 M 800.962 602.250 C 796.159 604.672, 792 611.053, 792 616 C 792 617.417, 793.013 620.584, 794.250 623.038 C 796.672 627.841, 803.053 632, 808 632 C 815.634 632, 823.967 623.650, 823.967 616 C 823.967 608.350, 815.634 600, 808 600 C 806.583 600, 803.416 601.013, 800.962 602.250" stroke="none" fill="black" fill-rule="evenodd"/>
</svg>