<svg width="128" height="128" viewBox="0 0 128 128" fill="none" xmlns="http://www.w3.org/2000/svg">
<g id="04">
<path id="Path" d="M36.7779 90.5118C28.6462 75.4889 30.9286 56.3218 43.6252 43.6252C56.3218 30.9286 75.4889 28.6462 90.5118 36.7779C88.7296 33.4855 86.4472 30.392 83.6646 27.6094C68.1854 12.1302 43.0886 12.1302 27.6094 27.6094C12.1302 43.0886 12.1302 68.1854 27.6094 83.6646C30.392 86.4472 33.4855 88.7296 36.7779 90.5118Z" fill="#1B70F0"/>
<path id="Path_2" d="M36.778 90.5118C51.8009 98.6436 70.968 96.3612 83.6646 83.6646C96.3612 70.968 98.6436 51.8009 90.5118 36.778C93.8043 38.5601 96.8977 40.8426 99.6804 43.6252C115.16 59.1044 115.16 84.2012 99.6804 99.6804C84.2012 115.16 59.1044 115.16 43.6252 99.6804C40.8425 96.8977 38.5601 93.8043 36.778 90.5118Z" fill="#1B70F0"/>
<path id="Path_3" d="M83.6646 43.6252C72.6475 32.608 56.7584 29.4322 42.9325 34.0977C41.0482 34.7335 39.235 32.732 40.4644 31.1689C41.4345 29.9356 42.4881 28.7466 43.6252 27.6094C59.1044 12.1302 84.2012 12.1302 99.6804 27.6094C106.993 34.9218 110.851 44.3806 111.254 53.9578C111.346 56.1307 108.313 56.3971 107.368 54.438C105.484 50.5298 102.922 46.8666 99.6804 43.6252C98.5432 42.488 97.3542 41.4344 96.1209 40.4643C94.5578 39.2349 92.5561 41.0477 93.1919 42.9319C94.3991 46.5092 95.0814 50.2246 95.2387 53.9579C95.3302 56.1308 92.2969 56.3971 91.3526 54.438C89.4687 50.5298 86.906 46.8666 83.6646 43.6252Z" fill="url(#paint0_linear)"/>
<path id="Path_4" d="M35.9372 72.8517C34.9929 70.8926 31.9596 71.1589 32.0511 73.3318C32.2084 77.0652 32.8907 80.7806 34.0978 84.3578C34.7337 86.2421 32.732 88.0548 31.1689 86.8254C29.9356 85.8553 28.7465 84.8017 27.6094 83.6646C24.368 80.4232 21.8053 76.76 19.9214 72.8517C18.9771 70.8926 15.9438 71.1591 16.0354 73.332C16.4389 82.9092 20.297 92.3679 27.6094 99.6804C43.0886 115.16 68.1854 115.16 83.6646 99.6804C84.8017 98.5432 85.8553 97.3542 86.8254 96.1208C88.0548 94.5578 86.2416 92.5562 84.3573 93.1921C70.5314 97.8576 54.6423 94.6817 43.6252 83.6646C40.3837 80.4232 37.8211 76.76 35.9372 72.8517Z" fill="url(#paint1_linear)"/>
<path id="Path_5" d="M48 103L41 96" stroke="url(#paint2_linear)" stroke-width="2" stroke-linecap="round"/>
<path id="Path_6" d="M57 103L50 96" stroke="url(#paint3_linear)" stroke-width="2" stroke-linecap="round"/>
<circle id="Oval" cx="64" cy="64" r="13" fill="url(#paint4_linear)"/>
<path id="Path_7" d="M103 65C103 66.1046 102.105 67 101 67C99.8954 67 99 66.1046 99 65C99 63.8954 99.8954 63 101 63C102.105 63 103 63.8954 103 65Z" fill="url(#paint5_linear)"/>
<path id="Path_8" d="M103 71C103 72.1046 102.105 73 101 73C99.8954 73 99 72.1046 99 71C99 69.8954 99.8954 69 101 69C102.105 69 103 69.8954 103 71Z" fill="url(#paint6_linear)"/>
<path id="Path_9" d="M101 79C102.105 79 103 78.1046 103 77C103 75.8954 102.105 75 101 75C99.8954 75 99 75.8954 99 77C99 78.1046 99.8954 79 101 79Z" fill="url(#paint7_linear)"/>
<path id="Path_10" d="M24 62C24 60.8954 24.8954 60 26 60C27.1046 60 28 60.8954 28 62C28 63.1046 27.1046 64 26 64C24.8954 64 24 63.1046 24 62Z" fill="url(#paint8_linear)"/>
<path id="Path_11" d="M24 56C24 54.8954 24.8954 54 26 54C27.1046 54 28 54.8954 28 56C28 57.1046 27.1046 58 26 58C24.8954 58 24 57.1046 24 56Z" fill="url(#paint9_linear)"/>
<path id="Path_12" d="M26 48C24.8954 48 24 48.8954 24 50C24 51.1046 24.8954 52 26 52C27.1046 52 28 51.1046 28 50C28 48.8954 27.1046 48 26 48Z" fill="url(#paint10_linear)"/>
<path id="Path_13" d="M89.4407 17.2C90.3559 15.6 92.6441 15.6 93.5593 17.2L97.6779 24.4C98.5931 26 97.4491 28 95.6186 28H87.3814C85.5509 28 84.4069 26 85.3221 24.4L89.4407 17.2Z" fill="url(#paint11_linear)"/>
</g>
<defs>
<linearGradient id="paint0_linear" x1="111.29" y1="19.0156" x2="36.778" y2="19.0156" gradientUnits="userSpaceOnUse">
<stop stop-color="#EEF5FF"/>
<stop offset="1" stop-color="#97C7FF"/>
</linearGradient>
<linearGradient id="paint1_linear" x1="90.5118" y1="66.6605" x2="16" y2="66.6605" gradientUnits="userSpaceOnUse">
<stop stop-color="#97C7FF"/>
<stop offset="1" stop-color="#EEF5FF"/>
</linearGradient>
<linearGradient id="paint2_linear" x1="41" y1="96" x2="41" y2="103" gradientUnits="userSpaceOnUse">
<stop stop-color="#C5DEFF"/>
<stop offset="1" stop-color="#82BBFF"/>
</linearGradient>
<linearGradient id="paint3_linear" x1="50" y1="96" x2="50" y2="103" gradientUnits="userSpaceOnUse">
<stop stop-color="#C5DEFF"/>
<stop offset="1" stop-color="#82BBFF"/>
</linearGradient>
<linearGradient id="paint4_linear" x1="65.2187" y1="39.2187" x2="41.6562" y2="62.7813" gradientUnits="userSpaceOnUse">
<stop stop-color="#F3F8FF"/>
<stop offset="0.546875" stop-color="#B9D9FF"/>
<stop offset="1" stop-color="#96C6FF"/>
</linearGradient>
<linearGradient id="paint5_linear" x1="101.948" y1="58.0277" x2="94.0035" y2="60.1315" gradientUnits="userSpaceOnUse">
<stop stop-color="#F3F8FF"/>
<stop offset="1" stop-color="#96C6FF"/>
</linearGradient>
<linearGradient id="paint6_linear" x1="101.948" y1="58.0277" x2="94.0035" y2="60.1315" gradientUnits="userSpaceOnUse">
<stop stop-color="#F3F8FF"/>
<stop offset="1" stop-color="#96C6FF"/>
</linearGradient>
<linearGradient id="paint7_linear" x1="101.948" y1="58.0277" x2="94.0035" y2="60.1315" gradientUnits="userSpaceOnUse">
<stop stop-color="#F3F8FF"/>
<stop offset="1" stop-color="#96C6FF"/>
</linearGradient>
<linearGradient id="paint8_linear" x1="25.0519" y1="68.9723" x2="32.9965" y2="66.8685" gradientUnits="userSpaceOnUse">
<stop stop-color="#F3F8FF"/>
<stop offset="1" stop-color="#96C6FF"/>
</linearGradient>
<linearGradient id="paint9_linear" x1="25.0519" y1="68.9723" x2="32.9965" y2="66.8685" gradientUnits="userSpaceOnUse">
<stop stop-color="#F3F8FF"/>
<stop offset="1" stop-color="#96C6FF"/>
</linearGradient>
<linearGradient id="paint10_linear" x1="25.0519" y1="68.9723" x2="32.9965" y2="66.8685" gradientUnits="userSpaceOnUse">
<stop stop-color="#F3F8FF"/>
<stop offset="1" stop-color="#96C6FF"/>
</linearGradient>
<linearGradient id="paint11_linear" x1="89" y1="11.1538" x2="79.4983" y2="23.8982" gradientUnits="userSpaceOnUse">
<stop stop-color="#D8E9FF"/>
<stop offset="1" stop-color="#99C8FF"/>
</linearGradient>
</defs>
</svg>
